<svg height="512" viewBox="0 0 60 60" width="512" xmlns="http://www.w3.org/2000/svg"><g id="007---Terminal" fill="none"><g id="Icons" transform="translate(1 1)"><path id="Rectangle-path" d="m11 38h36v5h-36z" fill="#283593"/><path id="Rectangle-path" d="m11 38h33v5h-33z" fill="#3f51b5"/><rect id="Rectangle-path" fill="#283593" height="38" rx="4" width="44" x="7"/><rect id="Rectangle-path" fill="#3f51b5" height="38" rx="4" width="41" x="7"/><path id="Shape" d="m46.18 4.02c-5.3.2-34.52 2.36-35.16 26.17-.031-.19-.02 1.718-.02-25.19 0-.55228475.4477153-1 1-1 36.617 0 34-.01 34.18.02z" fill="#009688"/><path id="Shape" d="m47 5v25c0 .5522847-.4477153 1-1 1-36.2 0-34.228.134-34.66-.25-.162422-.1446544-.2745129-.3373108-.32-.55-.01-.01 0-.01 0-.01.64-23.81 29.857-26.07 35.16-26.17h.02c.4656663.09505372.800097.50473138.8.98z" fill="#00695c"/><path id="Shape" d="m56 58h-54c-.66168964-.0026657-1.27923088-.3324316-1.64950003-.8808303-.37026914-.5483986-.44533249-1.2444362-.20049997-1.8591697l4.84-9.75c.61305031-1.516234 2.08451983-2.5090804 3.72-2.51h40.58c1.6354802.0009196 3.1069497.993766 3.72 2.51l4.84 9.75c.2448325.6147335.1697692 1.3107711-.2005 1.8591697-.3702691.5483987-.9878104.8781646-1.6495.8808303z" fill="#0377bc"/><path id="Shape" d="m53 58h-51c-.66168964-.0026657-1.27923088-.3324316-1.64950003-.8808303-.37026914-.5483986-.44533249-1.2444362-.20049997-1.8591697l4.84-9.75c.61305031-1.516234 2.08451983-2.5090804 3.72-2.51h37.58c1.6354802.0009196 3.1069497.993766 3.72 2.51l4.84 9.75c.2448325.6147335.1697692 1.3107711-.2005 1.8591697-.3702691.5483987-.9878104.8781646-1.6495.8808303z" fill="#02a9f4"/><g fill="#3f51b5"><path id="Shape" d="m35 54h-27.277c-.35761825.0007066-.68839235-.1896133-.86750734-.4991438-.17911498-.3095305-.17930283-.6911495-.00049266-1.0008562l2.277-5c.17898507-.3100129.51002916-.5007064.868-.5h25c.5522847 0 1 .4477153 1 1v5c0 .5522847-.4477153 1-1 1z"/><path id="Shape" d="m50.277 54h-9.277c-.5522847 0-1-.4477153-1-1v-5c0-.5522847.4477153-1 1-1h7c.3579708-.0007064.6890149.1899871.868.5l2.277 5c.1788102.3097067.1786223.6913257-.0004927 1.0008562-.1791149.3095305-.5098891.4998504-.8675073.4991438z"/></g></g><g id="Layer_2" fill="#000"><path id="Shape" d="m47 33c1.1045695 0 2-.8954305 2-2v-25c0-1.1045695-.8954305-2-2-2h-34c-1.1045695 0-2 .8954305-2 2v25c0 1.1045695.8954305 2 2 2zm-34-27h34v25h-34z"/><path id="Shape" d="m3 60h54c1.0093231-.0005892 1.9506992-.5086804 2.5051218-1.3520956.5544226-.8434151.6475704-1.9090929.2478782-2.8359044l-4.816-9.668c-.7539088-1.9039425-2.5972408-3.1516144-4.645-3.144h-1.292v-3.1c2.3264168-.4784327 3.9970017-2.5248992 4-4.9v-30c-.0033061-2.76005315-2.2399468-4.99669388-5-5h-36c-2.76005315.00330612-4.99669388 2.23994685-5 5v30c.00299829 2.3751008 1.6735832 4.4215673 4 4.9v3.1h-1.292c-2.01881255-.0147005-3.84341822 1.2005153-4.608 3.069l-4.884 9.817c-.36954121.9240181-.25681365 1.9711501.30092881 2.7953428.55774245.8241927 1.48789784 1.31816 2.48307119 1.3186572zm6-25v-30c0-1.65685425 1.3431458-3 3-3h36c1.6568542 0 3 1.34314575 3 3v30c0 1.6568542-1.3431458 3-3 3h-36c-1.6568542 0-3-1.3431458-3-3zm38 5v3h-34v-3h2c0 .5522847.4477153 1 1 1s1-.4477153 1-1h2c0 .5522847.4477153 1 1 1s1-.4477153 1-1h2c0 .5522847.4477153 1 1 1s1-.4477153 1-1h2c0 .5522847.4477153 1 1 1s1-.4477153 1-1h2c0 .5522847.4477153 1 1 1s1-.4477153 1-1h2c0 .5522847.4477153 1 1 1s1-.4477153 1-1h2c0 .5522847.4477153 1 1 1s1-.4477153 1-1h2c0 .5522847.4477153 1 1 1s1-.4477153 1-1zm-44.96 16.7 4.883-9.817c.45279873-1.1406417 1.5577805-1.8877443 2.785-1.883h40.584c1.2553235.0043886 2.3771251.7846339 2.818 1.96l4.817 9.669c.1229724.3078051.0854347.6565434-.1002252.9311278s-.4953145.4393311-.8267748.4398722h-54c-.31806702-.0019295-.6166035-.1537236-.80555247-.409592-.18894898-.2558684-.24618699-.5858522-.15444753-.890408z"/><path id="Shape" d="m8.724 56h27.276c1.1045695 0 2-.8954305 2-2v-5c0-1.1045695-.8954305-2-2-2h-25c-.7479871.0078786-1.43109767.4262742-1.778 1.089l-2.236 4.919c-.35371046.6192229-.35095003 1.3799386.00724504 1.9965782.35819507.6166397 1.01762953.995905 1.73075496.9954218zm2.276-7h25v5l-27.235-.082z"/><path id="Shape" d="m42 56h9.276c.6963768-.0001642 1.3425342-.3625397 1.7058168-.9566495.3632825-.5941098.3913829-1.334411.0741832-1.9543505l-2.32-5.081c-.3559283-.6231061-1.0184025-1.0077685-1.736-1.008h-7c-1.1045695 0-2 .8954305-2 2v5c0 1.1045695.8954305 2 2 2zm0-7 6.958-.082 2.324 5.082h-9.282z"/><path id="Shape" d="m16.6 8.2c-.2858125-.21435937-.6642734-.25995645-.9928203-.11961526-.3285469.14034118-.5572656.44529947-.6.80000001-.0427345.35470055.1070078.7052559.3928203.91961525l2.933 2.2-2.933 2.2c-.3443443.2582582-.4847973.7078856-.3486833 1.1162278.136114.4083421.5182529.6837722.9486833.6837722.449 0 .2.1 4.6-3.2.2518058-.1888544.4-.4852427.4-.8s-.1481942-.6111456-.4-.8z"/><path id="Shape" d="m26 14h-3c-.5522847 0-1 .4477153-1 1s.4477153 1 1 1h3c.5522847 0 1-.4477153 1-1s-.4477153-1-1-1z"/></g></g></svg>