<svg height="512" viewBox="0 0 64 64" width="512" xmlns="http://www.w3.org/2000/svg" xmlns:xlink="http://www.w3.org/1999/xlink"><linearGradient id="New_Gradient_Swatch_3" gradientUnits="userSpaceOnUse" x1="51" x2="51" y1="64.067" y2="2.114"><stop offset="0" stop-color="#006df0"/><stop offset="1" stop-color="#00e7f0"/></linearGradient><linearGradient id="New_Gradient_Swatch_3-3" x1="46.5" x2="46.5" xlink:href="#New_Gradient_Swatch_3" y1="64.067" y2="2.114"/><linearGradient id="New_Gradient_Swatch_3-4" x1="43.206" x2="43.206" xlink:href="#New_Gradient_Swatch_3" y1="64.067" y2="2.114"/><linearGradient id="New_Gradient_Swatch_3-5" x1="42" x2="42" xlink:href="#New_Gradient_Swatch_3" y1="64.067" y2="2.114"/><linearGradient id="New_Gradient_Swatch_3-6" x1="60" x2="60" xlink:href="#New_Gradient_Swatch_3" y1="64.067" y2="2.114"/><linearGradient id="New_Gradient_Swatch_3-7" x1="58.794" x2="58.794" xlink:href="#New_Gradient_Swatch_3" y1="64.067" y2="2.114"/><linearGradient id="New_Gradient_Swatch_3-10" x1="55.5" x2="55.5" xlink:href="#New_Gradient_Swatch_3" y1="64.067" y2="2.114"/><linearGradient id="New_Gradient_Swatch_3-11" x1="32.001" x2="32.001" xlink:href="#New_Gradient_Swatch_3" y1="64.067" y2="2.114"/><linearGradient id="New_Gradient_Swatch_3-12" x1="32" x2="32" xlink:href="#New_Gradient_Swatch_3" y1="64.067" y2="2.114"/><linearGradient id="New_Gradient_Swatch_3-13" x1="13" x2="13" xlink:href="#New_Gradient_Swatch_3" y1="64.067" y2="2.114"/><linearGradient id="New_Gradient_Swatch_3-14" x1="9" x2="9" xlink:href="#New_Gradient_Swatch_3" y1="64.067" y2="2.114"/><linearGradient id="New_Gradient_Swatch_3-15" x1="11" x2="11" xlink:href="#New_Gradient_Swatch_3" y1="64.067" y2="2.114"/><linearGradient id="New_Gradient_Swatch_3-16" x1="19.75" x2="19.75" xlink:href="#New_Gradient_Swatch_3" y1="64.067" y2="2.114"/><linearGradient id="New_Gradient_Swatch_3-17" x1="7.01" x2="7.01" xlink:href="#New_Gradient_Swatch_3" y1="64.067" y2="2.114"/><linearGradient id="New_Gradient_Swatch_3-18" x1="44.25" x2="44.25" xlink:href="#New_Gradient_Swatch_3" y1="64.067" y2="2.114"/><linearGradient id="New_Gradient_Swatch_3-19" x1="56.99" x2="56.99" xlink:href="#New_Gradient_Swatch_3" y1="64.067" y2="2.114"/><linearGradient id="New_Gradient_Swatch_3-20" x1="8" x2="8" xlink:href="#New_Gradient_Swatch_3" y1="64.067" y2="2.114"/><linearGradient id="New_Gradient_Swatch_3-21" x1="15" x2="15" xlink:href="#New_Gradient_Swatch_3" y1="64.067" y2="2.114"/><g id="Smart_light" data-name="Smart light"><path d="m56.908 11.938a6 6 0 1 0 -9.322 6 .908.908 0 0 1 .414.739v3.323a3 3 0 0 0 6 0v-3.32a.963.963 0 0 1 .447-.768 6 6 0 0 0 2.461-5.974zm-5.908 11.062a1 1 0 0 1 -1-1h2a1 1 0 0 1 -1 1zm2.293-6.721a2.935 2.935 0 0 0 -1.293 2.401v1.32h-2v-1.325a2.922 2.922 0 0 0 -1.27-2.38 4 4 0 1 1 4.563-.016z" fill="url(#New_Gradient_Swatch_3)"/><path d="m51 6a1 1 0 0 1 -1-1v-2a1 1 0 0 1 2 0v2a1 1 0 0 1 -1 1z" fill="url(#New_Gradient_Swatch_3)"/><path d="m47 7.072a1 1 0 0 1 -.867-.5l-1-1.732a1 1 0 1 1 1.732-1l1 1.732a1 1 0 0 1 -.865 1.5z" fill="url(#New_Gradient_Swatch_3-3)"/><path d="m44.071 10a.992.992 0 0 1 -.5-.134l-1.732-1a1 1 0 0 1 1-1.732l1.732 1a1 1 0 0 1 -.5 1.866z" fill="url(#New_Gradient_Swatch_3-4)"/><path d="m43 14h-2a1 1 0 0 1 0-2h2a1 1 0 0 1 0 2z" fill="url(#New_Gradient_Swatch_3-5)"/><path d="m61 14h-2a1 1 0 0 1 0-2h2a1 1 0 0 1 0 2z" fill="url(#New_Gradient_Swatch_3-6)"/><path d="m57.929 10a1 1 0 0 1 -.5-1.866l1.732-1a1 1 0 1 1 1 1.732l-1.732 1a.992.992 0 0 1 -.5.134z" fill="url(#New_Gradient_Swatch_3-7)"/><path d="m42.341 19a1 1 0 0 1 -.5-1.866l1.732-1a1 1 0 0 1 1 1.732l-1.732 1a.992.992 0 0 1 -.5.134z" fill="url(#New_Gradient_Swatch_3-4)"/><path d="m59.659 19a.992.992 0 0 1 -.5-.134l-1.732-1a1 1 0 1 1 1-1.732l1.732 1a1 1 0 0 1 -.5 1.866z" fill="url(#New_Gradient_Swatch_3-7)"/><path d="m55 7.072a1 1 0 0 1 -.865-1.5l1-1.732a1 1 0 0 1 1.732 1l-1 1.732a1 1 0 0 1 -.867.5z" fill="url(#New_Gradient_Swatch_3-10)"/><path d="m32.03 54a18.894 18.894 0 0 1 -2.116-.12 18 18 0 0 1 -8.052-32.75 3.044 3.044 0 0 1 2.473-.433 2.969 2.969 0 0 1 1.9 1.541 3.005 3.005 0 0 1 -1.01 3.862 11.989 11.989 0 0 0 -1.225 18.84 11.995 11.995 0 0 0 19.935-7.7 12.035 12.035 0 0 0 -5.231-11.187 2.973 2.973 0 0 1 -.956-3.793 2.991 2.991 0 0 1 1.923-1.554 3.043 3.043 0 0 1 2.478.435 18 18 0 0 1 1.84 28.285 17.786 17.786 0 0 1 -11.959 4.574zm-8.452-31.4a1.052 1.052 0 0 0 -.591.184 16 16 0 1 0 18.037.008 1.048 1.048 0 0 0 -.849-.151.98.98 0 0 0 -.638.515.968.968 0 0 0 .29 1.24 14 14 0 1 1 -15.735.056 1.012 1.012 0 0 0 .376-1.284.977.977 0 0 0 -.636-.536 1.04 1.04 0 0 0 -.254-.032z" fill="url(#New_Gradient_Swatch_3-11)"/><path d="m32 38a3 3 0 0 1 -3-3v-16a3 3 0 0 1 6 0v16a3 3 0 0 1 -3 3zm0-20a1 1 0 0 0 -1 1v16a1 1 0 0 0 2 0v-16a1 1 0 0 0 -1-1z" fill="url(#New_Gradient_Swatch_3-12)"/><path d="m11 16a1 1 0 0 1 -1-1 5.006 5.006 0 0 1 5-5 1 1 0 0 1 0 2 3 3 0 0 0 -3 3 1 1 0 0 1 -1 1z" fill="url(#New_Gradient_Swatch_3-13)"/><path d="m3 16a1 1 0 0 1 -1-1 13.015 13.015 0 0 1 13-13 1 1 0 0 1 0 2 11.013 11.013 0 0 0 -11 11 1 1 0 0 1 -1 1z" fill="url(#New_Gradient_Swatch_3-14)"/><path d="m7 16a1 1 0 0 1 -1-1 9.011 9.011 0 0 1 9-9 1 1 0 0 1 0 2 7.008 7.008 0 0 0 -7 7 1 1 0 0 1 -1 1z" fill="url(#New_Gradient_Swatch_3-15)"/><path d="m7.5 32a.976.976 0 0 1 -.2-.02 1 1 0 0 1 -.78-1.18 26.071 26.071 0 0 1 25.48-20.8 1 1 0 0 1 0 2 24.063 24.063 0 0 0 -23.52 19.2 1 1 0 0 1 -.98.8z" fill="url(#New_Gradient_Swatch_3-16)"/><path d="m7 37a1 1 0 0 1 -1-1q0-.522.021-1.04a1 1 0 0 1 2 .08q-.021.477-.021.96a1 1 0 0 1 -1 1z" fill="url(#New_Gradient_Swatch_3-17)"/><path d="m32 62a1 1 0 0 1 0-2 24.063 24.063 0 0 0 23.52-19.2 1 1 0 1 1 1.96.4 26.071 26.071 0 0 1 -25.48 20.8z" fill="url(#New_Gradient_Swatch_3-18)"/><path d="m56.981 38h-.039a1 1 0 0 1 -.961-1.038c.012-.319.019-.64.019-.962a1 1 0 0 1 2 0q0 .522-.021 1.038a1 1 0 0 1 -.998.962z" fill="url(#New_Gradient_Swatch_3-19)"/><path d="m11 51h-2v-2a1 1 0 0 0 -2 0v2h-2a1 1 0 0 0 0 2h2v2a1 1 0 0 0 2 0v-2h2a1 1 0 0 0 0-2z" fill="url(#New_Gradient_Swatch_3-20)"/><path d="m18 60h-6a1 1 0 0 1 0-2h6a1 1 0 0 1 0 2z" fill="url(#New_Gradient_Swatch_3-21)"/></g></svg>